<svg xmlns="http://www.w3.org/2000/svg" xmlns:xlink="http://www.w3.org/1999/xlink" width="500" zoomAndPan="magnify" viewBox="0 0 375 374.999991" height="500" preserveAspectRatio="xMidYMid meet" version="1.0"><defs><clipPath id="dec15df648"><path d="M 46 38 L 330.375 38 L 330.375 335 L 46 335 Z M 46 38 " clip-rule="nonzero"/></clipPath></defs><rect x="-37.5" width="450" fill="#ffffff" y="-37.499999" height="449.999989" fill-opacity="1"/><rect x="-37.5" width="450" fill="#ffffff" y="-37.499999" height="449.999989" fill-opacity="1"/><g clip-path="url(#dec15df648)"><path fill="#000000" d="M 321.1875 199.664062 C 321.789062 199.601562 322.378906 199.488281 322.957031 199.316406 C 323.539062 199.144531 324.09375 198.921875 324.632812 198.648438 C 325.167969 198.371094 325.675781 198.050781 326.152344 197.679688 C 326.628906 197.308594 327.066406 196.894531 327.464844 196.441406 C 327.863281 195.988281 328.21875 195.503906 328.527344 194.984375 C 328.832031 194.464844 329.089844 193.921875 329.296875 193.351562 C 329.5 192.785156 329.652344 192.203125 329.75 191.609375 C 329.84375 191.011719 329.882812 190.414062 329.867188 189.808594 C 330.113281 181.152344 330.296875 169.785156 329.769531 164.78125 C 329.648438 163.703125 329.324219 162.691406 328.785156 161.746094 C 328.25 160.804688 327.550781 160.003906 326.6875 159.347656 C 321.605469 155.304688 309.871094 155.507812 302.761719 156.070312 C 302.773438 154.503906 302.78125 152.980469 302.789062 151.453125 L 320.511719 150.582031 C 321.113281 150.523438 321.703125 150.410156 322.28125 150.238281 C 322.859375 150.070312 323.417969 149.847656 323.957031 149.570312 C 324.492188 149.296875 325 148.972656 325.476562 148.601562 C 325.953125 148.234375 326.390625 147.820312 326.789062 147.367188 C 327.1875 146.914062 327.539062 146.429688 327.847656 145.910156 C 328.15625 145.390625 328.410156 144.847656 328.617188 144.28125 C 328.820312 143.714844 328.972656 143.132812 329.070312 142.539062 C 329.164062 141.941406 329.203125 141.34375 329.1875 140.738281 C 329.4375 132.101562 329.625 120.75 329.089844 115.707031 C 328.96875 114.628906 328.640625 113.617188 328.105469 112.671875 C 327.570312 111.730469 326.871094 110.929688 326.003906 110.273438 C 321.078125 106.359375 309.910156 106.429688 302.753906 106.945312 C 302.738281 105.292969 302.722656 103.660156 302.707031 102.078125 L 320.511719 101.207031 C 321.113281 101.148438 321.703125 101.03125 322.28125 100.863281 C 322.859375 100.691406 323.417969 100.46875 323.957031 100.195312 C 324.492188 99.917969 325 99.597656 325.476562 99.226562 C 325.953125 98.855469 326.390625 98.445312 326.789062 97.992188 C 327.1875 97.539062 327.539062 97.054688 327.847656 96.535156 C 328.15625 96.015625 328.410156 95.472656 328.617188 94.90625 C 328.824219 94.335938 328.972656 93.757812 329.070312 93.160156 C 329.164062 92.566406 329.203125 91.964844 329.1875 91.363281 C 329.4375 82.726562 329.625 71.371094 329.089844 66.332031 C 328.96875 65.253906 328.640625 64.242188 328.105469 63.296875 C 327.570312 62.351562 326.871094 61.550781 326.007812 60.894531 C 320.683594 56.660156 308.082031 57.074219 301.128906 57.691406 C 300.972656 53.980469 300.371094 50.339844 299.320312 46.773438 C 297.574219 42.539062 295.753906 38.125 185.929688 38.707031 C 133.175781 38.960938 80.195312 40.34375 79.792969 40.359375 C 78.746094 40.332031 77.703125 40.359375 76.660156 40.441406 C 75.617188 40.519531 74.578125 40.652344 73.546875 40.835938 C 72.519531 41.019531 71.5 41.253906 70.496094 41.539062 C 69.488281 41.828125 68.5 42.164062 67.527344 42.550781 C 66.554688 42.933594 65.601562 43.367188 64.675781 43.851562 C 63.746094 44.332031 62.84375 44.859375 61.96875 45.433594 C 61.09375 46.003906 60.246094 46.617188 59.433594 47.277344 C 58.621094 47.933594 57.839844 48.628906 57.097656 49.367188 C 56.351562 50.101562 55.648438 50.875 54.980469 51.679688 C 54.316406 52.488281 53.691406 53.324219 53.109375 54.195312 C 52.527344 55.0625 51.992188 55.960938 51.5 56.882812 C 51.007812 57.808594 50.566406 58.753906 50.167969 59.722656 C 49.773438 60.691406 49.425781 61.675781 49.128906 62.679688 C 48.832031 63.683594 48.585938 64.699219 48.390625 65.726562 C 48.195312 66.753906 48.054688 67.789062 47.960938 68.832031 C 47.871094 69.875 47.832031 70.917969 47.847656 71.964844 C 47.21875 94.441406 44.757812 294.011719 47.917969 312.546875 C 52.03125 336.722656 77.574219 334.609375 87.160156 333.835938 C 98.855469 332.878906 234.785156 333.964844 279.441406 334.320312 C 288.125 334.390625 293.632812 334.429688 294.535156 334.429688 C 295.328125 334.425781 296.089844 334.265625 296.816406 333.949219 C 297.542969 333.628906 298.175781 333.179688 298.714844 332.601562 C 302.105469 329.054688 303.472656 319.3125 301.53125 275.910156 C 301.378906 272.601562 301.269531 270.300781 301.28125 269.621094 C 301.292969 269.378906 301.285156 269.136719 301.257812 268.898438 L 301.289062 268.898438 C 301.289062 267.359375 301.378906 261.9375 301.523438 253.742188 C 301.550781 252.289062 301.574219 250.886719 301.597656 249.449219 L 320.511719 248.523438 C 321.113281 248.460938 321.703125 248.347656 322.28125 248.175781 C 322.863281 248.007812 323.417969 247.785156 323.957031 247.507812 C 324.492188 247.234375 325 246.910156 325.476562 246.539062 C 325.953125 246.167969 326.390625 245.757812 326.789062 245.304688 C 327.1875 244.851562 327.539062 244.367188 327.847656 243.847656 C 328.15625 243.328125 328.414062 242.785156 328.617188 242.214844 C 328.824219 241.648438 328.972656 241.066406 329.070312 240.472656 C 329.164062 239.875 329.203125 239.277344 329.1875 238.671875 C 329.441406 230.039062 329.625 218.6875 329.089844 213.640625 C 328.96875 212.5625 328.644531 211.554688 328.105469 210.609375 C 327.570312 209.664062 326.871094 208.867188 326.007812 208.210938 C 320.964844 204.199219 309.390625 204.359375 302.273438 204.910156 C 302.292969 203.453125 302.308594 202.023438 302.328125 200.585938 Z M 57.386719 72.234375 C 57.355469 71.585938 57.355469 70.9375 57.382812 70.289062 C 57.410156 69.640625 57.46875 68.996094 57.554688 68.351562 C 57.644531 67.710938 57.761719 67.070312 57.90625 66.4375 C 58.054688 65.808594 58.230469 65.183594 58.433594 64.566406 C 58.640625 63.949219 58.871094 63.347656 59.132812 62.75 C 59.394531 62.15625 59.679688 61.574219 59.996094 61.007812 C 60.308594 60.441406 60.648438 59.890625 61.015625 59.351562 C 61.378906 58.816406 61.769531 58.296875 62.183594 57.796875 C 62.597656 57.296875 63.035156 56.816406 63.492188 56.359375 C 63.949219 55.898438 64.429688 55.460938 64.925781 55.046875 C 65.425781 54.628906 65.941406 54.238281 66.476562 53.871094 C 67.011719 53.503906 67.5625 53.160156 68.128906 52.84375 C 68.695312 52.527344 69.277344 52.238281 69.867188 51.976562 C 70.460938 51.710938 71.066406 51.476562 71.683594 51.269531 C 72.296875 51.0625 72.921875 50.886719 73.550781 50.738281 C 74.183594 50.585938 74.820312 50.46875 75.464844 50.378906 C 79.164062 97.101562 80.539062 233.875 79.917969 262.324219 C 77.488281 262.957031 75.136719 263.808594 72.863281 264.878906 C 70.589844 265.949219 68.433594 267.21875 66.394531 268.691406 C 64.359375 270.164062 62.476562 271.808594 60.746094 273.632812 C 59.015625 275.453125 57.46875 277.417969 56.101562 279.53125 C 55.292969 219.261719 56.765625 94.515625 57.386719 72.234375 Z M 291.949219 324.878906 C 289.398438 324.859375 285.121094 324.820312 279.523438 324.78125 C 227.894531 324.363281 164.421875 323.914062 124.441406 323.914062 C 104.242188 323.914062 90.03125 324.03125 86.382812 324.324219 C 67.867188 325.851562 59.40625 322.078125 57.394531 311.339844 C 57.757812 273.105469 84.773438 270.902344 85.765625 270.835938 C 88.394531 270.769531 91.097656 270.707031 93.835938 270.640625 C 93.765625 275.046875 93.65625 282.945312 93.640625 290.042969 L 79.839844 289.90625 L 79.792969 289.90625 C 79.480469 289.902344 79.167969 289.933594 78.859375 289.992188 C 78.554688 290.050781 78.253906 290.140625 77.964844 290.257812 C 77.675781 290.378906 77.398438 290.523438 77.136719 290.695312 C 76.875 290.867188 76.632812 291.066406 76.410156 291.285156 C 76.1875 291.507812 75.992188 291.746094 75.816406 292.003906 C 75.640625 292.265625 75.492188 292.539062 75.371094 292.828125 C 75.25 293.117188 75.15625 293.414062 75.09375 293.722656 C 75.03125 294.027344 75 294.339844 75 294.652344 C 74.996094 294.964844 75.027344 295.277344 75.085938 295.582031 C 75.144531 295.890625 75.234375 296.1875 75.351562 296.480469 C 75.472656 296.769531 75.617188 297.046875 75.789062 297.304688 C 75.960938 297.566406 76.160156 297.808594 76.378906 298.03125 C 76.597656 298.253906 76.839844 298.453125 77.097656 298.628906 C 77.359375 298.804688 77.632812 298.953125 77.921875 299.074219 C 78.210938 299.195312 78.507812 299.285156 78.816406 299.347656 C 79.121094 299.414062 79.433594 299.445312 79.746094 299.445312 L 93.71875 299.582031 C 93.765625 301.378906 93.828125 302.828125 93.921875 303.648438 C 93.96875 304.15625 94.085938 304.652344 94.265625 305.132812 C 94.449219 305.613281 94.6875 306.058594 94.988281 306.476562 C 95.289062 306.890625 95.636719 307.257812 96.035156 307.582031 C 96.433594 307.90625 96.867188 308.167969 97.335938 308.375 C 101.542969 310.1875 106.457031 306.800781 114.753906 300.636719 C 115.410156 300.152344 116.167969 299.589844 116.867188 299.082031 L 117.960938 300.164062 C 121.496094 304.375 125.753906 307.652344 130.734375 309.988281 C 131.238281 310.136719 131.75 310.210938 132.277344 310.210938 C 133.769531 310.203125 135.054688 309.6875 136.136719 308.660156 C 138.023438 306.085938 139.085938 303.207031 139.332031 300.023438 C 207.066406 300.667969 248.019531 300.992188 261.398438 300.992188 C 264.046875 300.992188 265.617188 300.976562 266.101562 300.957031 C 266.414062 300.9375 266.722656 300.890625 267.023438 300.816406 C 267.328125 300.738281 267.621094 300.632812 267.902344 300.496094 C 268.1875 300.363281 268.453125 300.199219 268.703125 300.011719 C 268.957031 299.824219 269.1875 299.617188 269.394531 299.382812 C 269.605469 299.152344 269.789062 298.898438 269.949219 298.628906 C 270.109375 298.363281 270.242188 298.078125 270.347656 297.785156 C 270.453125 297.488281 270.527344 297.1875 270.570312 296.875 C 270.617188 296.566406 270.628906 296.253906 270.613281 295.941406 C 270.589844 295.632812 270.539062 295.328125 270.457031 295.027344 C 270.375 294.726562 270.265625 294.4375 270.128906 294.15625 C 269.992188 293.875 269.832031 293.613281 269.644531 293.363281 C 269.457031 293.117188 269.246094 292.886719 269.015625 292.679688 C 268.785156 292.46875 268.535156 292.285156 268.269531 292.125 C 268.003906 291.964844 267.726562 291.828125 267.433594 291.722656 C 267.140625 291.613281 266.839844 291.535156 266.535156 291.484375 C 266.226562 291.433594 265.917969 291.414062 265.605469 291.421875 C 262.921875 291.582031 217.316406 291.222656 140.363281 290.492188 C 140.84375 282.804688 140.746094 274.664062 140.597656 269.761719 C 205.871094 268.8125 277.949219 268.921875 291.820312 272.242188 C 291.867188 273.363281 291.929688 274.746094 291.996094 276.335938 C 293.417969 308.117188 292.867188 320.484375 291.949219 324.878906 Z M 131.144531 269.90625 C 131.355469 279.445312 130.988281 288.964844 130.042969 298.457031 C 128.089844 296.761719 125.894531 294.589844 124.667969 293.378906 C 121.457031 290.203125 120.257812 289.011719 118.429688 288.589844 C 115.792969 287.972656 114.234375 289.132812 109.066406 292.980469 C 107.613281 294.058594 105.277344 295.792969 103.207031 297.1875 C 103.121094 290.441406 103.234375 279.210938 103.382812 270.429688 C 112.28125 270.238281 121.59375 270.0625 131.144531 269.90625 Z M 291.984375 253.578125 C 291.917969 257.363281 291.863281 260.566406 291.820312 263.070312 C 261.882812 257.980469 157.160156 259.550781 89.5 261.199219 C 90.183594 228.035156 88.425781 94.375 84.976562 49.773438 C 119.855469 48.894531 163.578125 48.199219 201.972656 48.199219 C 245.929688 48.199219 282.757812 49.109375 290.875 51.679688 C 292.902344 60.640625 294.554688 104.339844 291.984375 253.578125 Z M 320.355469 166.5625 C 320.648438 170.425781 320.640625 178.679688 320.328125 189.535156 C 320.328125 189.75 320.285156 189.957031 320.207031 190.160156 L 302.445312 191.027344 C 302.546875 182.148438 302.632812 173.667969 302.695312 165.65625 C 308.640625 164.839844 314.527344 165.140625 320.355469 166.5625 Z M 319.675781 117.488281 C 319.972656 121.363281 319.96875 129.625 319.648438 140.46875 C 319.644531 140.679688 319.605469 140.882812 319.53125 141.078125 L 302.832031 141.894531 C 302.859375 132.761719 302.855469 124.304688 302.820312 116.523438 C 308.5 115.785156 314.117188 116.105469 319.675781 117.488281 Z M 319.675781 68.113281 C 319.972656 71.988281 319.96875 80.246094 319.648438 91.09375 C 319.644531 91.304688 319.605469 91.507812 319.53125 91.703125 L 302.566406 92.53125 C 302.386719 82.40625 302.125 73.992188 301.769531 67.222656 C 307.796875 66.378906 313.765625 66.675781 319.675781 68.113281 Z M 319.675781 215.421875 C 319.972656 219.308594 319.96875 227.5625 319.648438 238.402344 C 319.644531 238.617188 319.605469 238.820312 319.53125 239.019531 L 301.757812 239.886719 C 301.898438 231.097656 302.027344 222.652344 302.140625 214.503906 C 308.042969 213.703125 313.890625 214.011719 319.675781 215.421875 Z M 319.675781 215.421875 " fill-opacity="1" fill-rule="nonzero"/></g><path fill="#000000" d="M 130.585938 145.453125 C 133.242188 138.332031 136.097656 130.949219 138.859375 124.078125 C 148.558594 124.523438 156.105469 124.753906 161.210938 124.753906 C 162.449219 124.753906 163.507812 124.738281 164.46875 124.710938 C 167.402344 132.953125 169.683594 139.523438 170.082031 141.074219 C 170.167969 141.671875 170.359375 142.230469 170.660156 142.753906 C 170.957031 143.277344 171.34375 143.730469 171.8125 144.109375 C 172.28125 144.484375 172.804688 144.765625 173.382812 144.945312 C 173.957031 145.125 174.546875 145.191406 175.148438 145.148438 C 175.75 145.105469 176.320312 144.953125 176.863281 144.691406 C 177.410156 144.433594 177.886719 144.082031 178.296875 143.640625 C 178.707031 143.199219 179.023438 142.695312 179.242188 142.136719 C 179.464844 141.574219 179.574219 140.992188 179.574219 140.390625 C 179.574219 139.636719 179.5625 138.5625 172.460938 118.671875 C 172.4375 118.558594 172.46875 118.441406 172.433594 118.328125 C 172.34375 118.121094 172.242188 117.921875 172.125 117.730469 C 169.714844 110.984375 166.53125 102.191406 162.300781 90.632812 C 162.1875 90.328125 162.046875 90.035156 161.878906 89.757812 C 161.027344 88.386719 159.933594 87.25 158.59375 86.34375 C 157.257812 85.4375 155.792969 84.84375 154.203125 84.566406 C 153.429688 84.480469 152.65625 84.488281 151.882812 84.582031 C 151.109375 84.679688 150.355469 84.863281 149.625 85.128906 C 148.894531 85.398438 148.203125 85.75 147.550781 86.175781 C 146.902344 86.605469 146.308594 87.101562 145.773438 87.667969 C 140.441406 92.699219 127.128906 127.425781 121.648438 142.117188 C 121.539062 142.410156 121.457031 142.714844 121.402344 143.023438 C 121.351562 143.335938 121.332031 143.644531 121.339844 143.960938 C 121.347656 144.273438 121.390625 144.585938 121.460938 144.890625 C 121.53125 145.199219 121.632812 145.496094 121.761719 145.78125 C 121.890625 146.066406 122.046875 146.339844 122.230469 146.59375 C 122.414062 146.847656 122.621094 147.085938 122.851562 147.300781 C 123.078125 147.515625 123.328125 147.703125 123.597656 147.871094 C 123.863281 148.035156 124.144531 148.171875 124.4375 148.28125 C 124.734375 148.394531 125.035156 148.472656 125.347656 148.523438 C 125.65625 148.574219 125.96875 148.59375 126.28125 148.582031 C 126.597656 148.570312 126.90625 148.527344 127.214844 148.453125 C 127.519531 148.378906 127.816406 148.277344 128.101562 148.148438 C 128.386719 148.015625 128.65625 147.855469 128.910156 147.671875 C 129.164062 147.488281 129.398438 147.28125 129.613281 147.046875 C 129.824219 146.816406 130.011719 146.566406 130.175781 146.300781 C 130.339844 146.03125 130.476562 145.75 130.585938 145.453125 Z M 152.320312 94.605469 C 152.703125 94.246094 152.957031 94.101562 152.988281 94.046875 C 153.207031 94.183594 153.402344 94.351562 153.570312 94.542969 C 155.800781 100.648438 158.503906 108.085938 161.074219 115.226562 C 156.457031 115.1875 149.660156 114.984375 142.703125 114.695312 C 145.289062 107.703125 148.496094 101.003906 152.320312 94.605469 Z M 152.320312 94.605469 " fill-opacity="1" fill-rule="nonzero"/><path fill="#000000" d="M 187.820312 119.117188 L 202.542969 119.117188 C 202.855469 119.117188 203.164062 119.089844 203.472656 119.027344 C 203.78125 118.964844 204.078125 118.875 204.367188 118.753906 C 204.65625 118.636719 204.933594 118.488281 205.191406 118.316406 C 205.453125 118.140625 205.695312 117.941406 205.914062 117.722656 C 206.136719 117.5 206.335938 117.257812 206.507812 117 C 206.683594 116.738281 206.828125 116.464844 206.949219 116.175781 C 207.070312 115.882812 207.160156 115.585938 207.222656 115.277344 C 207.28125 114.972656 207.3125 114.660156 207.3125 114.347656 C 207.3125 114.035156 207.28125 113.726562 207.222656 113.417969 C 207.160156 113.109375 207.070312 112.8125 206.949219 112.523438 C 206.828125 112.234375 206.683594 111.957031 206.507812 111.699219 C 206.335938 111.4375 206.136719 111.195312 205.914062 110.976562 C 205.695312 110.753906 205.453125 110.554688 205.191406 110.382812 C 204.933594 110.207031 204.65625 110.0625 204.367188 109.941406 C 204.078125 109.820312 203.78125 109.730469 203.472656 109.667969 C 203.164062 109.609375 202.855469 109.578125 202.542969 109.578125 L 187.820312 109.578125 C 187.507812 109.578125 187.199219 109.609375 186.890625 109.667969 C 186.582031 109.730469 186.285156 109.820312 185.996094 109.941406 C 185.707031 110.0625 185.429688 110.207031 185.171875 110.382812 C 184.910156 110.554688 184.667969 110.753906 184.449219 110.976562 C 184.226562 111.195312 184.027344 111.4375 183.855469 111.699219 C 183.679688 111.957031 183.535156 112.234375 183.414062 112.523438 C 183.292969 112.8125 183.203125 113.109375 183.140625 113.417969 C 183.082031 113.726562 183.050781 114.035156 183.050781 114.347656 C 183.050781 114.660156 183.082031 114.972656 183.140625 115.277344 C 183.203125 115.585938 183.292969 115.882812 183.414062 116.175781 C 183.535156 116.464844 183.679688 116.738281 183.855469 117 C 184.027344 117.257812 184.226562 117.5 184.449219 117.722656 C 184.667969 117.941406 184.910156 118.140625 185.171875 118.316406 C 185.429688 118.488281 185.707031 118.636719 185.996094 118.753906 C 186.285156 118.875 186.582031 118.964844 186.890625 119.027344 C 187.199219 119.089844 187.507812 119.117188 187.820312 119.117188 Z M 187.820312 119.117188 " fill-opacity="1" fill-rule="nonzero"/><path fill="#000000" d="M 252.109375 136.75 C 240.765625 136.667969 227.75 136.222656 220.632812 135.570312 C 223.9375 130.992188 227.523438 126.648438 231.390625 122.535156 C 233.851562 120.070312 255.460938 98.253906 254.222656 91.414062 C 253.554688 87.746094 252.921875 84.296875 216.285156 85.238281 C 215.972656 85.246094 215.664062 85.285156 215.359375 85.355469 C 215.050781 85.421875 214.757812 85.519531 214.46875 85.648438 C 214.183594 85.777344 213.914062 85.929688 213.65625 86.113281 C 213.402344 86.292969 213.164062 86.496094 212.949219 86.722656 C 212.734375 86.953125 212.542969 87.199219 212.375 87.460938 C 212.207031 87.726562 212.070312 88.007812 211.957031 88.296875 C 211.84375 88.589844 211.761719 88.890625 211.707031 89.199219 C 211.65625 89.507812 211.632812 89.820312 211.640625 90.132812 C 211.652344 90.445312 211.695312 90.753906 211.765625 91.058594 C 211.839844 91.359375 211.9375 91.65625 212.066406 91.941406 C 212.195312 92.222656 212.351562 92.492188 212.53125 92.746094 C 212.714844 93.003906 212.917969 93.238281 213.144531 93.453125 C 213.371094 93.667969 213.617188 93.859375 213.878906 94.023438 C 214.140625 94.191406 214.417969 94.332031 214.710938 94.445312 C 215 94.558594 215.300781 94.644531 215.609375 94.699219 C 215.914062 94.757812 216.226562 94.78125 216.535156 94.777344 C 225.792969 94.53125 236.566406 94.679688 242.558594 95.230469 C 236.964844 102.414062 230.996094 109.265625 224.644531 115.789062 C 223.347656 117.082031 209.15625 132.796875 208.558594 138.164062 C 208.496094 138.875 208.578125 139.574219 208.796875 140.253906 C 209.015625 140.9375 209.355469 141.550781 209.820312 142.09375 C 211.285156 143.75 213.292969 146.007812 252.046875 146.292969 L 252.078125 146.292969 C 252.390625 146.292969 252.699219 146.265625 253.007812 146.203125 C 253.316406 146.144531 253.613281 146.054688 253.90625 145.9375 C 254.195312 145.816406 254.46875 145.671875 254.730469 145.5 C 254.992188 145.324219 255.234375 145.128906 255.457031 144.90625 C 255.679688 144.6875 255.875 144.445312 256.050781 144.1875 C 256.226562 143.925781 256.375 143.652344 256.496094 143.363281 C 256.617188 143.074219 256.707031 142.777344 256.769531 142.46875 C 256.832031 142.164062 256.863281 141.851562 256.863281 141.539062 C 256.867188 141.226562 256.835938 140.914062 256.777344 140.609375 C 256.714844 140.300781 256.625 140 256.507812 139.710938 C 256.386719 139.421875 256.242188 139.148438 256.070312 138.886719 C 255.894531 138.625 255.699219 138.382812 255.480469 138.160156 C 255.257812 137.9375 255.015625 137.738281 254.757812 137.566406 C 254.496094 137.390625 254.222656 137.242188 253.933594 137.121094 C 253.644531 137 253.347656 136.910156 253.039062 136.847656 C 252.734375 136.785156 252.421875 136.753906 252.109375 136.753906 Z M 252.109375 136.75 " fill-opacity="1" fill-rule="nonzero"/><path fill="#000000" d="M 244.492188 181.453125 C 236.75 183.195312 171.421875 184.46875 131.445312 184.871094 C 131.132812 184.871094 130.824219 184.90625 130.515625 184.96875 C 130.210938 185.03125 129.910156 185.121094 129.625 185.242188 C 129.335938 185.363281 129.058594 185.511719 128.800781 185.6875 C 128.539062 185.863281 128.300781 186.0625 128.082031 186.285156 C 127.859375 186.507812 127.664062 186.75 127.492188 187.011719 C 127.316406 187.273438 127.171875 187.546875 127.054688 187.835938 C 126.933594 188.128906 126.847656 188.425781 126.785156 188.734375 C 126.726562 189.042969 126.699219 189.351562 126.699219 189.664062 C 126.703125 189.976562 126.734375 190.289062 126.796875 190.59375 C 126.859375 190.902344 126.949219 191.199219 127.070312 191.488281 C 127.191406 191.777344 127.339844 192.050781 127.515625 192.3125 C 127.691406 192.570312 127.890625 192.8125 128.113281 193.03125 C 128.335938 193.25 128.578125 193.449219 128.839844 193.621094 C 129.101562 193.792969 129.375 193.9375 129.667969 194.058594 C 129.957031 194.175781 130.253906 194.265625 130.5625 194.324219 C 130.871094 194.382812 131.179688 194.414062 131.492188 194.410156 L 131.539062 194.410156 C 246.742188 193.257812 248.695312 190.816406 250.417969 188.664062 C 250.761719 188.234375 251.023438 187.765625 251.203125 187.246094 C 251.382812 186.730469 251.46875 186.199219 251.464844 185.652344 C 251.460938 185.105469 251.367188 184.574219 251.183594 184.058594 C 250.996094 183.542969 250.730469 183.078125 250.382812 182.652344 C 250.035156 182.230469 249.625 181.878906 249.15625 181.597656 C 248.6875 181.3125 248.1875 181.117188 247.652344 181.007812 C 247.113281 180.898438 246.574219 180.882812 246.035156 180.957031 C 245.492188 181.035156 244.980469 181.199219 244.492188 181.453125 Z M 244.492188 181.453125 " fill-opacity="1" fill-rule="nonzero"/><path fill="#000000" d="M 215.492188 211.433594 C 211.308594 211.992188 182.804688 212.152344 157.558594 212.042969 L 157.535156 212.042969 C 157.222656 212.042969 156.914062 212.074219 156.605469 212.136719 C 156.296875 212.195312 156 212.285156 155.710938 212.40625 C 155.421875 212.523438 155.144531 212.671875 154.886719 212.84375 C 154.625 213.019531 154.382812 213.214844 154.164062 213.4375 C 153.941406 213.65625 153.742188 213.898438 153.570312 214.15625 C 153.394531 214.417969 153.246094 214.691406 153.125 214.980469 C 153.007812 215.269531 152.914062 215.566406 152.851562 215.875 C 152.792969 216.179688 152.761719 216.492188 152.757812 216.804688 C 152.757812 217.117188 152.789062 217.425781 152.847656 217.734375 C 152.910156 218.039062 153 218.339844 153.117188 218.628906 C 153.238281 218.917969 153.382812 219.191406 153.554688 219.453125 C 153.730469 219.714844 153.925781 219.957031 154.144531 220.179688 C 154.367188 220.398438 154.605469 220.597656 154.867188 220.773438 C 155.125 220.949219 155.402344 221.09375 155.6875 221.214844 C 155.976562 221.335938 156.277344 221.429688 156.582031 221.492188 C 156.890625 221.554688 157.199219 221.585938 157.511719 221.585938 C 165.347656 221.621094 172.167969 221.640625 178.117188 221.640625 C 217.515625 221.640625 218.527344 220.835938 219.957031 219.695312 C 220.394531 219.34375 220.757812 218.933594 221.050781 218.457031 C 221.339844 217.976562 221.542969 217.464844 221.652344 216.917969 C 221.765625 216.371094 221.78125 215.820312 221.699219 215.265625 C 221.617188 214.714844 221.441406 214.191406 221.175781 213.699219 C 220.910156 213.207031 220.570312 212.777344 220.152344 212.40625 C 219.734375 212.03125 219.265625 211.742188 218.746094 211.535156 C 218.226562 211.328125 217.6875 211.21875 217.128906 211.199219 C 216.570312 211.183594 216.023438 211.261719 215.492188 211.433594 Z M 215.492188 211.433594 " fill-opacity="1" fill-rule="nonzero"/></svg>